<svg width="14" height="14" viewBox="0 0 14 14" fill="none" xmlns="http://www.w3.org/2000/svg">
<path d="M13.2227 9.87988C13.2227 10.3545 12.8447 10.7148 12.4229 10.7148C11.9922 10.7148 11.6318 10.3281 11.6318 9.91504V6.66309L11.79 2.55859L10.3398 4.20215L1.6123 12.9209C1.4541 13.0879 1.26074 13.1582 1.05859 13.1582C0.619141 13.1582 0.241211 12.7627 0.241211 12.3408C0.241211 12.1475 0.329102 11.9453 0.487305 11.7871L9.19727 3.05957L10.832 1.62695L6.54297 1.76758H3.48438C3.07129 1.76758 2.69336 1.40723 2.69336 0.985352C2.69336 0.563477 3.02734 0.185547 3.51953 0.185547H12.3613C12.8887 0.185547 13.2139 0.537109 13.2139 1.03809L13.2227 9.87988Z" fill="black"/>
</svg>
