<svg width="36" height="36" viewBox="0 0 36 36" fill="none" xmlns="http://www.w3.org/2000/svg">
<g id="icon">
<path id="Vector 1" d="M19.8275 10.3916C19.8275 7.13915 18 2 18 2C18 2 15.8741 6.90132 15.8741 10.3916C15.8741 13.711 18 18.1119 18 18.1119C18 18.1119 19.8275 14.3077 19.8275 10.3916Z" fill="black" stroke="white"/>
<path id="Vector 2" d="M15.6615 10.3116C14.0353 7.49492 9.88302 3.95804 9.88302 3.95804C9.88302 3.95804 10.4926 9.26565 12.2378 12.2883C13.8974 15.163 17.939 17.9114 17.939 17.9114C17.939 17.9114 17.6195 13.7031 15.6615 10.3116Z" fill="black" stroke="white"/>
<path id="Vector 3" d="M12.1391 12.4615C9.32243 10.8353 3.95805 9.8484 3.95805 9.8484C3.95805 9.8484 7.13978 14.1401 10.1625 15.8853C13.0371 17.5449 17.9113 17.9043 17.9113 17.9043C17.9113 17.9043 15.5306 14.4196 12.1391 12.4615Z" fill="black" stroke="white"/>
<path id="Vector 4" d="M10.3916 16.2471C7.13914 16.2471 2 18.0746 2 18.0746C2 18.0746 6.90132 20.2005 10.3916 20.2005C13.711 20.2005 18.1119 18.0746 18.1119 18.0746C18.1119 18.0746 14.3077 16.2471 10.3916 16.2471Z" fill="black" stroke="white"/>
<path id="Vector 5" d="M10.4608 20.1818C7.64411 21.8081 4.10723 25.9603 4.10723 25.9603C4.10723 25.9603 9.41483 25.3507 12.4375 23.6056C15.3121 21.9459 18.0605 17.9043 18.0605 17.9043C18.0605 17.9043 13.8522 18.2238 10.4608 20.1818Z" fill="black" stroke="white"/>
<path id="Vector 6" d="M12.5361 23.679C10.9099 26.4957 9.92301 31.8601 9.92301 31.8601C9.92301 31.8601 14.2147 28.6783 15.9599 25.6557C17.6195 22.781 17.9789 17.9068 17.9789 17.9068C17.9789 17.9068 14.4942 20.2875 12.5361 23.679Z" fill="black" stroke="white"/>
<path id="Vector 7" d="M16.0979 25.6084C16.0979 28.8609 17.9254 34 17.9254 34C17.9254 34 20.0513 29.0987 20.0513 25.6084C20.0513 22.289 17.9254 17.8881 17.9254 17.8881C17.9254 17.8881 16.0979 21.6923 16.0979 25.6084Z" fill="black" stroke="white"/>
<path id="Vector 8" d="M20.2564 25.6557C21.8826 28.4724 26.0349 32.0093 26.0349 32.0093C26.0349 32.0093 25.4253 26.7016 23.6801 23.679C22.0204 20.8043 17.9789 18.0559 17.9789 18.0559C17.9789 18.0559 18.2983 22.2642 20.2564 25.6557Z" fill="black" stroke="white"/>
<path id="Vector 9" d="M23.8281 23.531C26.6449 25.1572 32.0092 26.1441 32.0092 26.1441C32.0092 26.1441 28.8275 21.8524 25.8048 20.1072C22.9302 18.4476 18.0559 18.0881 18.0559 18.0881C18.0559 18.0881 20.4367 21.5729 23.8281 23.531Z" fill="black" stroke="white"/>
<path id="Vector 10" d="M25.6084 19.7529C28.8609 19.7529 34 17.9254 34 17.9254C34 17.9254 29.0987 15.7995 25.6084 15.7995C22.289 15.7995 17.8881 17.9254 17.8881 17.9254C17.8881 17.9254 21.6923 19.7529 25.6084 19.7529Z" fill="black" stroke="white"/>
<path id="Vector 11" d="M25.5065 15.8107C28.3232 14.1844 31.8601 10.0322 31.8601 10.0322C31.8601 10.0322 26.5525 10.6418 23.5298 12.387C20.6551 14.0466 17.9068 18.0882 17.9068 18.0882C17.9068 18.0882 22.115 17.7687 25.5065 15.8107Z" fill="black" stroke="white"/>
<path id="Vector 12" d="M23.3818 12.2883C25.008 9.47161 25.9949 4.10723 25.9949 4.10723C25.9949 4.10723 21.7032 7.28896 19.958 10.3116C18.2984 13.1863 17.939 18.0605 17.939 18.0605C17.939 18.0605 21.4237 15.6798 23.3818 12.2883Z" fill="black" stroke="white"/>
</g>
</svg>
