<svg width="18" height="18" viewBox="0 0 18 18" fill="none" xmlns="http://www.w3.org/2000/svg">
<path d="M0.0214844 7.50195C0.0214844 3.63477 3.16797 0.488281 7.03516 0.488281C10.9023 0.488281 14.0488 3.63477 14.0488 7.50195C14.0488 9.10156 13.5127 10.5693 12.6074 11.7471L16.9053 16.0713C17.0898 16.2559 17.1953 16.5107 17.1953 16.792C17.1953 17.3809 16.7822 17.8291 16.1846 17.8291C15.9033 17.8291 15.6396 17.7324 15.4375 17.5303L11.1133 13.1973C9.96191 14.0234 8.56445 14.5156 7.03516 14.5156C3.16797 14.5156 0.0214844 11.3691 0.0214844 7.50195ZM1.52441 7.50195C1.52441 10.543 3.99414 13.0127 7.03516 13.0127C10.0762 13.0127 12.5459 10.543 12.5459 7.50195C12.5459 4.46094 10.0762 1.99121 7.03516 1.99121C3.99414 1.99121 1.52441 4.46094 1.52441 7.50195Z" fill="black"/>
</svg>
